<?xml version="1.0" encoding="utf-8"?>
<!-- Generator: Adobe Illustrator 19.2.1, SVG Export Plug-In . SVG Version: 6.00 Build 0)  -->
<svg version="1.1" id="Layer_1" xmlns="http://www.w3.org/2000/svg" xmlns:xlink="http://www.w3.org/1999/xlink" x="0px" y="0px"
	 viewBox="0 0 160 50" style="enable-background:new 0 0 160 50;" xml:space="preserve">
<style type="text/css">
	.st0{fill:#EC2327;}
	.st1{display:none;}
	.st2{display:none;fill:#EC2327;}
	.st3{stroke:#000000;stroke-width:0.25;stroke-miterlimit:10;}
	.st4{fill:#FFFFFF;}
</style>
<path class="st1" d="M56.9-9.8c0-14.5,11.5-25.9,26-25.9c14.2,0,25.7,11.7,25.7,25.9c-0.1,14.3-11.6,25.9-25.7,26
	C68.5,16.2,56.9,4.6,56.9-9.8z M103.7-10c0-11.6-9.5-21.1-20.9-21.1C71-31,61.5-21.4,61.5-9.7c0.1,11.6,9.5,21.1,21,21.1
	C94.2,11.5,103.7,1.9,103.7-10z"/>
<path class="st2" d="M53.1-8.3c0,0.2,0,0.3,0,0.5c0.8,3.6,1.5,7.2,2.5,10.8c0.6,2.2,0.7,4.1-1.6,5c-2.2,0.9-3.8,0.1-4.3-2.5
	c-0.1-0.7-1-1.6-1.7-1.8c-3.7-1.1-4-4-4.3-7.1c-0.3-3.8,0.6-7.3,3.8-9.3c3.1-2,5.3-4.3,6.4-7.8c4-12.5,15.4-20.7,28.5-20.8
	c13.2-0.1,24.6,7.7,28.9,20.2c1.3,3.6,3.4,6.1,6.6,8.1c3.7,2.3,3.9,6.3,3.5,10.2c-0.2,2.6-0.7,5.2-4.1,5.9c-0.7,0.1-1.1,1.6-1.8,2.2
	c-0.7,0.5-1.6,1-2.4,1.4c-0.8,0.4-1.9,0.2-2.4-0.6c-0.6-0.9-1.1-1.8-1-2.6c0.4-4.3,1.9-8.5,1.9-12.7c0-21.4-21-35.6-40.3-27.4
	C60.6-32.3,53.5-20.9,53.1-8.3z"/>
<path class="st2" d="M76.2-20c6,3.6,11.4,6.9,17.2,10.4c-5.9,3.4-11.4,6.5-17.2,9.9C76.2-6.7,76.2-13,76.2-20z"/>
<g>
	<path d="M14.6,27c0-10.6,8.4-19,19.1-19c10.4,0,18.9,8.6,18.9,19.1c-0.1,10.5-8.5,19-18.9,19.1C23.1,46.2,14.6,37.7,14.6,27z
		 M49,27c0-8.5-7-15.5-15.4-15.5C25,11.5,18,18.5,18,27.1c0.1,8.5,7,15.5,15.5,15.5C42,42.7,49,35.6,49,27z"/>
	<path class="st4" d="M11.8,28.2c0,0.1,0,0.2,0,0.3c0.6,2.6,1.1,5.3,1.8,7.9c0.4,1.6,0.5,3-1.2,3.6c-1.6,0.6-2.8,0.1-3.1-1.8
		c-0.1-0.5-0.8-1.2-1.3-1.3c-2.7-0.8-3-2.9-3.1-5.2c-0.2-2.8,0.4-5.3,2.8-6.9c2.3-1.4,3.9-3.1,4.7-5.7c3-9.2,11.3-15.2,20.9-15.3
		c9.7-0.1,18.1,5.7,21.2,14.8c0.9,2.7,2.5,4.5,4.9,6c2.7,1.7,2.8,4.6,2.6,7.5c-0.2,1.9-0.5,3.9-3,4.3c-0.5,0.1-0.8,1.2-1.3,1.6
		c-0.5,0.4-1.1,0.7-1.8,1c-0.6,0.3-1.4,0.1-1.7-0.5c-0.4-0.7-0.8-1.3-0.8-1.9c0.3-3.1,1.4-6.2,1.4-9.4c0-15.7-15.5-26.1-29.6-20.2
		C17.3,10.5,12.1,18.9,11.8,28.2z"/>
	<path class="st4" d="M28.8,19.6c4.4,2.6,8.4,5,12.7,7.6c-4.4,2.5-8.3,4.8-12.7,7.3C28.8,29.4,28.8,24.7,28.8,19.6z"/>
	<g>
		<path class="st4" d="M76.2,18.2h-3.8V17c0-0.6,0-0.9-0.1-1.1c-0.1-0.2-0.3-0.2-0.5-0.2c-0.2,0-0.4,0.1-0.6,0.3
			C71,16.2,71,16.5,71,16.9c0,0.5,0.1,0.9,0.2,1.2c0.1,0.3,0.5,0.6,1.2,1c1.8,1.1,3,2,3.5,2.7c0.5,0.7,0.7,1.8,0.7,3.4
			c0,1.1-0.1,2-0.4,2.5c-0.3,0.5-0.8,1-1.5,1.4c-0.8,0.4-1.6,0.5-2.7,0.5c-1.1,0-2.1-0.2-2.8-0.6c-0.8-0.4-1.3-1-1.5-1.6
			c-0.2-0.6-0.4-1.6-0.4-2.8v-1h3.8v1.9c0,0.6,0.1,1,0.2,1.2c0.1,0.2,0.3,0.3,0.6,0.3c0.3,0,0.5-0.1,0.6-0.3c0.1-0.2,0.2-0.5,0.2-1
			c0-0.9-0.1-1.6-0.4-1.8c-0.3-0.3-0.9-0.8-1.9-1.4c-1-0.7-1.7-1.2-2-1.5c-0.3-0.3-0.6-0.7-0.8-1.3c-0.2-0.5-0.3-1.2-0.3-2.1
			c0-1.2,0.2-2.1,0.5-2.7c0.3-0.6,0.8-1,1.5-1.3c0.7-0.3,1.5-0.5,2.5-0.5c1.1,0,2,0.2,2.7,0.5c0.8,0.3,1.3,0.8,1.5,1.3
			c0.2,0.5,0.4,1.4,0.4,2.7V18.2z"/>
		<path class="st4" d="M89.5,22.7c0,1.6,0,2.7-0.1,3.4c-0.1,0.7-0.3,1.3-0.7,1.8c-0.4,0.6-0.9,1-1.6,1.3c-0.7,0.3-1.5,0.4-2.4,0.4
			c-0.9,0-1.6-0.1-2.3-0.4c-0.7-0.3-1.2-0.7-1.6-1.3c-0.4-0.6-0.7-1.2-0.7-1.8c-0.1-0.7-0.1-1.8-0.1-3.4v-2.7c0-1.6,0-2.7,0.1-3.4
			c0.1-0.7,0.3-1.3,0.7-1.8c0.4-0.6,0.9-1,1.6-1.3c0.7-0.3,1.5-0.4,2.4-0.4c0.9,0,1.6,0.1,2.3,0.4c0.7,0.3,1.2,0.7,1.6,1.3
			c0.4,0.6,0.7,1.2,0.7,1.8c0.1,0.7,0.1,1.8,0.1,3.4V22.7z M85.4,17.4c0-0.7,0-1.2-0.1-1.4c-0.1-0.2-0.3-0.3-0.5-0.3
			c-0.2,0-0.4,0.1-0.5,0.3c-0.1,0.2-0.2,0.7-0.2,1.5v7.4c0,0.9,0,1.5,0.1,1.7c0.1,0.2,0.3,0.3,0.5,0.3c0.3,0,0.5-0.1,0.5-0.4
			c0.1-0.2,0.1-0.8,0.1-1.8V17.4z"/>
		<path class="st4" d="M106.1,13.3v15.9h-3.6l0-10.7L101,29.3h-2.6l-1.5-10.5l0,10.5h-3.6V13.3h5.4c0.2,1,0.3,2.1,0.5,3.4l0.6,4
			l1-7.4H106.1z"/>
		<path class="st4" d="M114.1,13.3v12.7h2.5v3.2h-6.7V13.3H114.1z"/>
		<path class="st4" d="M119.8,13.3h6.9v3.2h-2.8v3h2.6v3h-2.6v3.5h3v3.2h-7.2V13.3z"/>
		<path class="st4" d="M139.6,13.3v15.9H136l-2.2-7.2v7.2h-3.5V13.3h3.5l2.3,7.2v-7.2H139.6z"/>
		<path class="st4" d="M153,19.2h-4.1v-1.4c0-0.9,0-1.5-0.1-1.7c-0.1-0.2-0.3-0.3-0.6-0.3c-0.3,0-0.4,0.1-0.5,0.3
			c-0.1,0.2-0.1,0.7-0.1,1.5v7.6c0,0.7,0,1.2,0.1,1.4c0.1,0.2,0.3,0.3,0.5,0.3c0.3,0,0.5-0.1,0.6-0.4c0.1-0.3,0.2-0.8,0.2-1.5v-1.9
			h-0.8v-2.4h4.8v8.5h-2.6l-0.4-1.1c-0.3,0.5-0.6,0.9-1.1,1.1c-0.4,0.2-0.9,0.4-1.5,0.4c-0.7,0-1.3-0.2-2-0.5
			c-0.6-0.3-1.1-0.8-1.4-1.3c-0.3-0.5-0.5-1-0.6-1.6c-0.1-0.5-0.1-1.4-0.1-2.5v-4.7c0-1.5,0.1-2.6,0.2-3.3c0.2-0.7,0.6-1.3,1.4-1.9
			c0.8-0.6,1.8-0.9,3-0.9c1.2,0,2.2,0.2,3,0.7c0.8,0.5,1.3,1.1,1.6,1.8c0.2,0.7,0.4,1.7,0.4,3V19.2z"/>
	</g>
	<g>
		<path d="M70.7,34.1c0,0-0.1,0-0.1,0c0,0-0.1,0-0.1,0c0,0-0.1,0-0.1,0.1c0,0-0.1,0.1-0.1,0.1c-0.1,0.3-0.1,0.5-0.2,0.8
			c-0.1,0.2-0.2,0.4-0.3,0.6c-0.1,0.2-0.2,0.4-0.4,0.5c-0.2,0.2-0.3,0.3-0.6,0.4c0,0-0.1,0.1-0.1,0.1c0,0-0.1,0-0.1,0
			c0,0-0.1,0-0.1-0.1c0-0.1-0.1-0.2-0.1-0.3c0,0,0-0.1,0-0.1c0-0.1,0-0.1,0-0.3c0-0.1,0.1-0.2,0.1-0.4c0-0.2,0.1-0.4,0.2-0.6
			c0-0.1,0.1-0.2,0.1-0.2c0-0.1,0-0.2,0-0.2c0-0.1,0-0.2,0-0.2c0-0.1-0.1-0.2-0.1-0.2c0,0-0.1-0.1-0.2-0.1c-0.1,0-0.2,0-0.4,0
			c-0.1,0-0.1,0-0.2,0.1c0,0-0.1,0.1-0.1,0.1c0,0.1-0.1,0.1-0.1,0.2c0,0,0,0.1,0,0.1c0,0,0,0.1,0,0.1c0,0,0,0.1,0,0.1
			c0,0.2-0.1,0.4-0.1,0.5c0,0.2-0.1,0.3-0.1,0.5c0,0.1,0,0.3-0.1,0.4c0,0.1,0,0.3,0,0.4c0,0.1,0,0.2,0,0.3c0,0.1,0,0.2,0.1,0.2
			c0.1,0.2,0.2,0.3,0.4,0.4c0.1,0.1,0.3,0.1,0.5,0.1c0.1,0,0.2,0,0.3-0.1c0.1,0,0.2-0.1,0.3-0.1c0.1-0.1,0.2-0.1,0.3-0.2
			c0.1-0.1,0.2-0.1,0.2-0.2c0,0,0,0,0,0c0,0.1-0.1,0.1-0.1,0.2c-0.1,0.2-0.2,0.4-0.3,0.5c-0.1,0.2-0.2,0.3-0.4,0.4
			c-0.1,0.1-0.3,0.2-0.4,0.3c-0.1,0.1-0.2,0.2-0.3,0.2c-0.1,0.1-0.2,0.1-0.3,0.1c-0.1,0-0.2,0.1-0.3,0.1c-0.1,0-0.2,0-0.2,0.1
			c0,0-0.1,0-0.1,0c0,0-0.1,0.1-0.1,0.1c0,0,0,0.1-0.1,0.1c0,0,0,0.1,0,0.2c0,0.1,0,0.1,0,0.2c0,0.1,0,0.1,0.1,0.1
			c0,0,0.1,0.1,0.1,0.1c0.1,0,0.1,0.1,0.2,0.1c0.2,0,0.4,0,0.5-0.1c0.2-0.1,0.3-0.1,0.5-0.2c0.3-0.2,0.5-0.3,0.7-0.5
			c0.2-0.2,0.4-0.3,0.5-0.5c0.1-0.2,0.3-0.3,0.4-0.5c0.1-0.2,0.2-0.3,0.3-0.5c0.1-0.2,0.2-0.4,0.2-0.6c0.1-0.2,0.1-0.4,0.2-0.7
			l0.2-0.5c0-0.1,0-0.1,0.1-0.2c0-0.1,0.1-0.2,0.1-0.3c0-0.1,0.1-0.2,0.1-0.3c0-0.1,0-0.2,0-0.3c0-0.2-0.1-0.3-0.2-0.4
			S70.8,34.1,70.7,34.1z"/>
		<path d="M76.5,35c0-0.1,0-0.1-0.1-0.2c0-0.1-0.1-0.1-0.1-0.2c-0.1-0.2-0.2-0.4-0.4-0.5c-0.2-0.1-0.4-0.2-0.6-0.2
			c-0.2,0-0.4,0.1-0.5,0.2c-0.1,0-0.2,0-0.2,0.1c-0.1,0-0.2,0.1-0.2,0.1c-0.3,0.2-0.5,0.3-0.7,0.5c-0.2,0.2-0.4,0.4-0.5,0.6
			c-0.1,0.2-0.3,0.4-0.3,0.6c-0.1,0.2-0.2,0.4-0.2,0.5c-0.1,0.2-0.1,0.4-0.1,0.6c0,0.2,0,0.4,0.1,0.5c0.1,0.2,0.1,0.3,0.3,0.4
			c0.1,0.1,0.3,0.2,0.4,0.3c0.2,0.1,0.4,0.1,0.6,0.1c0.2,0,0.4,0,0.6-0.1c0.2-0.1,0.4-0.1,0.5-0.3c0.2-0.2,0.4-0.3,0.6-0.5
			c0.2-0.2,0.3-0.4,0.5-0.6c0.1-0.2,0.2-0.4,0.3-0.7c0.1-0.2,0.1-0.5,0.1-0.7c0-0.1,0-0.2,0-0.3C76.5,35.2,76.5,35.1,76.5,35z
			 M75.6,35.5c0,0.1,0,0.1,0,0.2c0,0.1,0,0.2-0.1,0.3c0,0.1-0.1,0.3-0.2,0.5c-0.1,0.2-0.2,0.3-0.3,0.5c-0.1,0.1-0.3,0.3-0.4,0.4
			c-0.2,0.1-0.3,0.1-0.5,0.1c-0.1,0-0.2,0-0.2,0c-0.1,0-0.1-0.1-0.1-0.1c0,0-0.1-0.1-0.1-0.1c0-0.1,0-0.1,0-0.2c0,0,0-0.1,0-0.1
			c0,0,0-0.1,0-0.2l0,0c0-0.1,0-0.1,0.1-0.2c0-0.1,0.1-0.2,0.2-0.3c0.1-0.1,0.1-0.2,0.2-0.3c0.1-0.1,0.2-0.2,0.2-0.3
			c0.1-0.1,0.2-0.1,0.3-0.2c0.1-0.1,0.2-0.1,0.2-0.1c0.1,0,0.3,0,0.3,0c0.1,0,0.2,0,0.2-0.1c0,0,0.1,0,0.1-0.1c0,0,0,0.1,0.1,0.1
			c0,0.1,0.1,0.1,0.1,0.2C75.6,35.4,75.6,35.5,75.6,35.5z"/>
		<path d="M82,34c-0.1-0.1-0.1-0.1-0.2-0.1c-0.1,0-0.1,0-0.2,0c-0.1,0-0.2,0-0.3,0.1c-0.1,0.1-0.1,0.1-0.1,0.3L81,34.8
			c0,0.1,0,0.2-0.1,0.3c0,0.1-0.1,0.3-0.1,0.4c0,0.1-0.1,0.3-0.1,0.4c-0.1,0.1-0.1,0.3-0.2,0.4l-0.1,0.2c-0.1,0.1-0.1,0.2-0.2,0.3
			c-0.1,0.1-0.2,0.2-0.3,0.3c-0.1,0.1-0.2,0.2-0.3,0.2c-0.1,0.1-0.2,0.1-0.3,0.1c0,0-0.1,0-0.1,0c0,0-0.1-0.1-0.1-0.1
			c0-0.1,0-0.1-0.1-0.2c0-0.1,0-0.1,0-0.2c0,0,0-0.1,0-0.2c0-0.1,0.1-0.2,0.1-0.4l0.2-0.6c0.1-0.2,0.2-0.5,0.2-0.9
			c0-0.1,0-0.1,0-0.2c0-0.1,0-0.2-0.1-0.3c-0.1-0.1-0.1-0.1-0.2-0.1c0,0-0.1,0-0.1,0c0,0-0.1,0-0.1,0c-0.1,0-0.1,0-0.2,0
			c0,0-0.1,0-0.1,0.1c0,0-0.1,0.1-0.1,0.1c0,0,0,0.1-0.1,0.1L78.7,35c0,0.1-0.1,0.2-0.1,0.4s-0.1,0.3-0.1,0.5c0,0.1,0,0.1-0.1,0.2
			c0,0.1-0.1,0.2-0.1,0.3c0,0.1,0,0.2-0.1,0.3c0,0.1,0,0.2,0,0.3c0,0.2,0,0.4,0.1,0.6c0.1,0.2,0.2,0.4,0.3,0.5c0,0,0.1,0.1,0.1,0.1
			c0.1,0,0.1,0.1,0.2,0.1c0.1,0,0.1,0.1,0.2,0.1c0.1,0,0.1,0,0.2,0c0.2,0,0.4,0,0.5-0.1c0.2-0.1,0.3-0.2,0.4-0.3
			c0.1-0.1,0.3-0.3,0.4-0.4c0-0.1,0.1-0.1,0.1-0.2l0,0.4c0,0,0,0.1,0,0.1c0,0.1,0,0.1,0.1,0.2c0,0,0.1,0.1,0.2,0.1
			c0.1,0,0.1,0,0.2,0c0.1,0,0.3,0,0.3-0.1c0.1-0.1,0.1-0.2,0.1-0.3c0,0,0-0.1,0-0.1c0-0.1,0-0.1,0-0.2c0-0.2,0-0.3,0-0.4
			c0-0.1,0-0.3,0-0.4c0-0.1,0-0.2,0-0.3c0-0.1,0-0.2,0-0.3c0-0.1,0-0.2,0.1-0.3c0-0.1,0-0.2,0.1-0.3l0-0.1c0-0.2,0.1-0.3,0.1-0.5
			c0-0.2,0.1-0.3,0.1-0.4c0-0.1,0-0.2,0-0.3C82.1,34.2,82,34.1,82,34z"/>
		<path d="M92.3,34.4c0,0-0.1-0.1-0.2-0.1c-0.1,0-0.3,0-0.4,0c0,0-0.1,0-0.1,0c-0.1,0-0.1,0-0.2,0c-0.3,0-0.4,0-0.7,0
			c-0.2,0-0.3,0.1-0.5,0.2c-0.4,0.3-0.7,0.6-0.9,0.9c-0.3,0.4-0.4,0.8-0.5,1.2c0,0.1,0,0.2-0.1,0.3c0,0.1,0,0.2,0,0.2
			c0,0.2,0,0.3,0.1,0.4c0.1,0.1,0.2,0.2,0.3,0.4c0.1,0,0.1,0.1,0.2,0.1c0.2,0.1,0.4,0.1,0.6-0.1c0.1-0.1,0.2-0.1,0.4-0.2
			c0.1-0.1,0.2-0.2,0.3-0.3c0,0,0.1,0,0.1-0.1c0,0,0,0.1,0,0.1c0,0.1,0,0.2,0,0.3c0,0,0,0.1,0,0.1c0,0.1,0,0.1,0.1,0.1
			c0,0,0.1,0.1,0.2,0.1c0.1,0,0.1,0,0.2,0c0.1,0,0.2,0,0.2-0.1c0.1,0,0.1-0.1,0.1-0.1c0,0,0.1-0.1,0.1-0.1l0-0.1
			c0-0.1,0-0.2,0.1-0.3c0-0.1,0-0.2,0-0.3l0.5-2.1l0.1-0.2c0-0.1,0-0.2,0-0.2c0-0.1,0-0.1,0-0.2C92.4,34.5,92.3,34.4,92.3,34.4z
			 M91.4,35.1c0,0.1,0,0.2,0,0.3s0,0.2-0.1,0.2c0,0.1-0.1,0.2-0.2,0.4c-0.1,0.1-0.2,0.3-0.3,0.4c-0.1,0.1-0.2,0.2-0.3,0.4
			c-0.1,0.1-0.2,0.2-0.3,0.3c-0.1,0.1-0.2,0.1-0.3,0.2c-0.1,0-0.2,0.1-0.3,0.1c0,0,0-0.1,0-0.1c0-0.1,0-0.1,0-0.2c0-0.1,0-0.1,0-0.1
			l0,0c0-0.1,0.1-0.3,0.1-0.4c0.1-0.1,0.1-0.3,0.2-0.4c0.1-0.1,0.2-0.2,0.3-0.4c0.1-0.1,0.2-0.2,0.3-0.3s0.2-0.1,0.4-0.2
			C91.1,35.1,91.2,35,91.4,35.1C91.4,35.1,91.4,35.1,91.4,35.1z"/>
		<path d="M97.1,34.4c-0.1,0-0.1-0.1-0.2-0.1c-0.1,0-0.1,0-0.2-0.1c-0.1,0-0.1,0-0.1,0c-0.2,0-0.4,0-0.5,0.1c-0.1,0-0.2,0.1-0.3,0.2
			c-0.1,0.1-0.2,0.1-0.3,0.2c0,0,0,0,0,0c0,0,0-0.1,0-0.1c0-0.1,0-0.2-0.1-0.2c0-0.1-0.1-0.1-0.2-0.2c-0.1-0.1-0.4-0.1-0.5,0
			c-0.1,0.1-0.1,0.1-0.1,0.3c0,0.1,0,0.2,0,0.2c0,0.1,0,0.2,0,0.3V35c0,0,0,0,0,0c0,0.2-0.1,0.4-0.1,0.6l-0.1,0.7
			c0,0.2-0.1,0.5-0.1,0.7c0,0.2-0.1,0.4-0.1,0.6c0,0.1,0,0.1,0,0.2c0,0.1,0,0.2,0.1,0.3c0.1,0.1,0.2,0.2,0.4,0.2
			c0.1,0,0.2,0,0.2-0.1c0.1,0,0.1-0.1,0.2-0.2c0-0.1,0.1-0.2,0.1-0.3c0-0.1,0-0.2,0-0.2l0-0.1c0.1-0.3,0.1-0.5,0.2-0.8
			c0.1-0.2,0.1-0.5,0.2-0.7c0.1-0.1,0.1-0.2,0.2-0.3c0.1-0.1,0.2-0.2,0.3-0.3c0.1-0.1,0.2-0.2,0.3-0.2c0.1-0.1,0.2-0.1,0.3-0.1l0,0
			c0,0,0,0,0,0l0,0.1c0,0,0,0.1,0.1,0.1c0,0,0.1,0.1,0.1,0.1c0.1,0,0.1,0.1,0.2,0.1c0.2,0.1,0.3,0.1,0.4,0c0,0,0.1-0.1,0.1-0.1
			c0-0.1,0.1-0.1,0.1-0.2c0-0.1,0-0.1,0-0.2c0-0.1,0-0.2-0.1-0.4C97.3,34.6,97.2,34.5,97.1,34.4z"/>
		<path d="M101.5,36.8c-0.1,0-0.2,0.1-0.3,0.2c-0.1,0-0.2,0.1-0.2,0.1c-0.1,0-0.2,0.1-0.3,0.1c-0.1,0-0.2,0.1-0.3,0.1
			c-0.1,0-0.2,0-0.3,0c-0.2,0-0.3,0-0.4-0.1c-0.1-0.1-0.1-0.1-0.1-0.3c0-0.1,0-0.1,0-0.2c0,0,0-0.1,0-0.1c0.1,0,0.2,0,0.3,0
			c0.2,0,0.3,0,0.5-0.1c0.2,0,0.3-0.1,0.5-0.1c0.2-0.1,0.3-0.1,0.5-0.2c0.1-0.1,0.3-0.2,0.4-0.3c0.1-0.1,0.2-0.3,0.2-0.4
			c0-0.1,0-0.2,0-0.3c0-0.1,0-0.2-0.1-0.3c0-0.1-0.1-0.2-0.2-0.3c-0.1-0.1-0.2-0.1-0.3-0.2c-0.3-0.1-0.7-0.1-1,0
			c-0.2,0.1-0.3,0.1-0.5,0.2c-0.1,0.1-0.3,0.2-0.4,0.3c-0.1,0.1-0.2,0.2-0.3,0.4c-0.1,0.1-0.2,0.2-0.2,0.3c0,0.1-0.1,0.1-0.1,0.2
			c-0.1,0-0.2,0.1-0.3,0.2c-0.1,0.1-0.1,0.2-0.1,0.4c0,0.1,0,0.2,0.1,0.2c0,0,0,0,0,0c0,0.1,0,0.2,0,0.3c0,0.2,0,0.3,0.1,0.4
			c0,0.1,0.1,0.2,0.2,0.3c0.1,0.1,0.2,0.2,0.3,0.2c0.1,0,0.2,0.1,0.3,0.1c0.1,0,0.2,0,0.3,0.1c0.1,0,0.2,0,0.2,0c0.3,0,0.7,0,1-0.1
			c0.3-0.1,0.6-0.3,0.9-0.5c0.1-0.1,0.1-0.1,0.2-0.2c0-0.1,0.1-0.2,0.1-0.3l0-0.1c0,0,0,0,0-0.1c0-0.1,0-0.1,0-0.2
			C101.9,36.7,101.7,36.7,101.5,36.8z M99.9,35.9C99.9,35.8,99.9,35.8,99.9,35.9c0.1-0.2,0.2-0.2,0.3-0.3c0.1-0.1,0.2-0.2,0.3-0.2
			c0.1-0.1,0.2-0.1,0.3-0.1c0,0,0.1,0,0.1,0c0,0,0,0,0,0.1l0,0l0.1,0l-0.1,0l0,0c0,0.1-0.1,0.1-0.1,0.2c-0.1,0.1-0.1,0.1-0.3,0.2
			c-0.1,0-0.2,0.1-0.4,0.1C100.1,35.8,100,35.9,99.9,35.9z"/>
		<path d="M111.4,34.1c-0.1,0-0.3,0.1-0.4,0.2c-0.1,0.1-0.2,0.1-0.4,0.2c0,0,0,0,0-0.1c0,0,0-0.1,0-0.1c0-0.1-0.1-0.2-0.2-0.3
			c-0.1-0.1-0.4-0.1-0.6,0c-0.1,0-0.2,0.1-0.2,0.2c-0.1,0.2-0.1,0.4-0.2,0.5c-0.1,0.2-0.1,0.3-0.2,0.5l-0.2,0.5
			c-0.1,0.2-0.1,0.3-0.2,0.5c-0.1,0.2-0.1,0.4-0.2,0.6c-0.1,0.2-0.1,0.4-0.2,0.7c0,0.1,0,0.1,0,0.2c0,0,0,0.1,0,0.1
			c0,0.2,0,0.3,0.1,0.4c0.1,0.1,0.2,0.1,0.3,0.1c0,0,0,0,0.1,0c0,0,0.1,0,0.1,0c0,0,0.1-0.1,0.1-0.1c0,0,0.1-0.1,0.1-0.2
			c0-0.1,0-0.2,0.1-0.2c0-0.1,0-0.1,0-0.2l0-0.2c0,0,0-0.1,0-0.2c0-0.1,0.1-0.2,0.1-0.3s0.1-0.2,0.1-0.4c0-0.1,0.1-0.2,0.1-0.3
			c0-0.1,0.1-0.1,0.1-0.2c0.1,0,0.1-0.1,0.1-0.1c0.1,0,0.1-0.1,0.2-0.1c0.1-0.1,0.2-0.2,0.3-0.3c0.1-0.1,0.2-0.2,0.3-0.2
			c0.1-0.1,0.2-0.1,0.3-0.2c0.1,0,0.2-0.1,0.3-0.1s0.1,0,0.1,0c0,0,0,0.1,0,0.2c0,0.1,0,0.2,0,0.3c0,0.1-0.1,0.2-0.1,0.3
			c0,0.1-0.1,0.2-0.1,0.3l-0.2,0.4c-0.1,0.2-0.1,0.3-0.2,0.4s-0.1,0.3-0.1,0.4c0,0.1-0.1,0.3-0.1,0.4c0,0.1,0,0.2,0,0.3
			c0,0.1,0,0.2,0.1,0.3c0.1,0.1,0.2,0.1,0.3,0.1c0.1,0,0.1,0,0.2,0c0.1,0,0.1,0,0.2-0.1c0,0,0.1-0.1,0.1-0.2c0-0.1,0.1-0.1,0.1-0.2
			c0.1-0.3,0.2-0.5,0.3-0.8c0.1-0.3,0.2-0.5,0.3-0.8c0.1-0.2,0.2-0.5,0.2-0.7c0.1-0.2,0.1-0.4,0.1-0.6c0-0.3-0.1-0.6-0.3-0.7
			C112.3,34,111.9,33.9,111.4,34.1z"/>
		<path d="M118.2,35c0-0.1,0-0.1-0.1-0.2c0-0.1-0.1-0.1-0.1-0.2c-0.1-0.2-0.2-0.4-0.4-0.5c-0.2-0.1-0.4-0.2-0.6-0.2
			c-0.2,0-0.4,0.1-0.5,0.2c-0.1,0-0.2,0-0.2,0.1c-0.1,0-0.2,0.1-0.2,0.1c-0.3,0.2-0.5,0.3-0.7,0.5c-0.2,0.2-0.4,0.4-0.5,0.6
			c-0.1,0.2-0.3,0.4-0.3,0.6c-0.1,0.2-0.2,0.4-0.2,0.5c-0.1,0.2-0.1,0.4-0.1,0.6c0,0.2,0,0.4,0.1,0.5c0.1,0.2,0.1,0.3,0.3,0.4
			c0.1,0.1,0.3,0.2,0.4,0.3c0.2,0.1,0.4,0.1,0.6,0.1c0.2,0,0.4,0,0.6-0.1c0.2-0.1,0.4-0.1,0.5-0.3c0.2-0.2,0.4-0.3,0.6-0.5
			c0.2-0.2,0.3-0.4,0.5-0.6c0.1-0.2,0.2-0.4,0.3-0.7c0.1-0.2,0.1-0.5,0.1-0.7c0-0.1,0-0.2,0-0.3C118.2,35.2,118.2,35.1,118.2,35z
			 M117.2,35.5c0,0.1,0,0.1,0,0.2c0,0.1,0,0.2-0.1,0.3c0,0.1-0.1,0.3-0.2,0.5c-0.1,0.2-0.2,0.3-0.3,0.5c-0.1,0.1-0.3,0.3-0.4,0.4
			c-0.2,0.1-0.3,0.1-0.5,0.1c-0.1,0-0.2,0-0.2,0c-0.1,0-0.1-0.1-0.1-0.1c0,0-0.1-0.1-0.1-0.1c0-0.1,0-0.1,0-0.2c0,0,0-0.1,0-0.1
			c0,0,0-0.1,0-0.2l0,0c0-0.1,0-0.1,0.1-0.2c0-0.1,0.1-0.2,0.2-0.3s0.1-0.2,0.2-0.3c0.1-0.1,0.2-0.2,0.2-0.3
			c0.1-0.1,0.2-0.1,0.3-0.2c0.1-0.1,0.2-0.1,0.2-0.1c0.1,0,0.3,0,0.3,0c0.1,0,0.2,0,0.2-0.1c0,0,0.1,0,0.1-0.1c0,0,0,0.1,0.1,0.1
			c0,0.1,0.1,0.1,0.1,0.2C117.2,35.4,117.2,35.5,117.2,35.5z"/>
		<path d="M123.5,34.2c0,0-0.1,0-0.2,0c-0.1,0-0.2,0-0.3,0l-0.4,0.1c-0.1,0-0.2,0-0.3,0.1l-0.3,0.1c-0.1,0-0.1,0-0.2,0l0.2-0.9
			c0-0.1,0-0.1,0-0.2c0-0.1,0-0.1,0-0.2c0-0.1,0-0.1-0.1-0.2c0-0.1-0.1-0.1-0.2-0.2c-0.2-0.1-0.4-0.1-0.5,0
			c-0.1,0.1-0.1,0.1-0.1,0.2c0,0.1,0,0.1,0,0.2c0,0,0,0.1,0,0.1v0c0,0.1,0,0.1,0,0.1c0,0,0,0.1,0,0.1c0,0,0,0,0,0.1l-0.1,0.5
			c0,0.1-0.1,0.2-0.1,0.4c0,0,0,0.1,0,0.1h-0.5c-0.1,0-0.1,0-0.2,0.1c0,0-0.1,0.1-0.1,0.1c0,0,0,0.1-0.1,0.1c0,0.1,0,0.1,0,0.1
			c0,0.1,0,0.2,0.1,0.2c0,0.1,0.1,0.1,0.2,0.1c0.1,0,0.1,0.1,0.2,0.1c0,0,0.1,0,0.1,0c0,0.2-0.1,0.4-0.1,0.6
			c-0.1,0.2-0.1,0.5-0.1,0.7c0,0.2,0,0.3,0.1,0.5s0.1,0.3,0.2,0.4c0.1,0.1,0.2,0.2,0.4,0.3c0.1,0.1,0.3,0.1,0.5,0.1
			c0.1,0,0.2,0,0.4,0c0.1,0,0.3-0.1,0.4-0.1c0.1,0,0.1-0.1,0.2-0.1c0.1,0,0.1-0.1,0.2-0.2c0.1-0.1,0.1-0.1,0.2-0.2
			c0.1-0.1,0.1-0.1,0.1-0.2c0.1-0.2,0.2-0.3,0.3-0.5c0.1-0.2,0.2-0.3,0.2-0.5c0,0,0,0,0-0.1c0-0.1,0-0.1,0-0.1c0,0-0.1-0.1-0.1-0.1
			c0,0-0.1,0-0.1,0c0,0-0.1,0-0.1,0c-0.1,0-0.2,0-0.2,0.1c-0.1,0.1-0.2,0.3-0.3,0.4c-0.1,0.1-0.2,0.3-0.3,0.4
			c-0.1,0.1-0.2,0.2-0.4,0.3c-0.1,0.1-0.2,0.1-0.4,0.1c-0.1,0-0.1,0-0.1,0c0,0-0.1,0-0.1-0.1c0,0,0-0.1,0-0.1c0-0.1,0-0.1,0-0.2
			c0-0.1,0-0.1,0-0.2c0-0.1,0-0.2,0.1-0.3c0-0.1,0.1-0.3,0.1-0.4c0-0.1,0.1-0.2,0.1-0.4c0,0,0,0,0,0c0,0,0.1,0,0.2,0
			c0.1,0,0.1,0,0.2,0c0.1,0,0.2,0,0.3-0.1c0.1,0,0.2,0,0.3-0.1c0.1,0,0.2,0,0.3-0.1l0.2-0.1c0.1,0,0.1,0,0.1,0c0.1,0,0.1,0,0.2-0.1
			c0.1,0,0.1-0.1,0.2-0.1c0,0,0.1-0.1,0.1-0.2c0-0.1,0.1-0.1,0.1-0.2c0-0.1,0-0.1-0.1-0.2C123.6,34.3,123.5,34.3,123.5,34.2z"/>
		<path d="M133.7,34.4c0,0-0.1-0.1-0.2-0.1c-0.1,0-0.3,0-0.4,0c0,0-0.1,0-0.1,0c-0.1,0-0.1,0-0.2,0c-0.3,0-0.4,0-0.7,0
			c-0.2,0-0.3,0.1-0.5,0.2c-0.4,0.3-0.7,0.6-0.9,0.9c-0.3,0.4-0.4,0.8-0.5,1.2c0,0.1,0,0.2-0.1,0.3c0,0.1,0,0.2,0,0.2
			c0,0.2,0,0.3,0.1,0.4c0.1,0.1,0.2,0.3,0.3,0.4c0.1,0,0.1,0.1,0.2,0.1c0.2,0.1,0.4,0.1,0.6-0.1c0.1-0.1,0.2-0.1,0.4-0.2
			c0.1-0.1,0.2-0.2,0.3-0.3c0,0,0.1,0,0.1-0.1c0,0,0,0.1,0,0.1c0,0.1,0,0.2,0,0.3c0,0.1,0,0.1,0,0.1c0,0.1,0,0.1,0.1,0.1
			c0,0,0.1,0.1,0.2,0.1c0.1,0,0.1,0,0.2,0c0.1,0,0.2,0,0.2-0.1c0.1,0,0.1-0.1,0.1-0.1c0,0,0.1-0.1,0.1-0.1c0,0,0-0.1,0-0.1
			c0-0.1,0-0.2,0.1-0.3c0-0.1,0-0.2,0-0.3l0.5-2.1l0.1-0.2c0-0.1,0-0.2,0-0.2c0-0.1,0-0.1,0-0.2C133.8,34.5,133.8,34.4,133.7,34.4z
			 M132.8,35.1c0,0.1,0,0.2,0,0.3s0,0.2,0,0.2c0,0.1-0.1,0.2-0.2,0.4c-0.1,0.1-0.2,0.3-0.3,0.4c-0.1,0.1-0.2,0.2-0.3,0.4
			c-0.1,0.1-0.2,0.2-0.3,0.3c-0.1,0.1-0.2,0.1-0.3,0.2c-0.1,0-0.2,0.1-0.3,0.1c0,0,0-0.1,0-0.1c0-0.1,0-0.1,0-0.2c0-0.1,0-0.1,0-0.1
			c0-0.1,0.1-0.3,0.1-0.4c0.1-0.1,0.1-0.3,0.2-0.4c0.1-0.1,0.2-0.2,0.3-0.4c0.1-0.1,0.2-0.2,0.3-0.3c0.1-0.1,0.2-0.1,0.4-0.2
			C132.6,35.1,132.7,35,132.8,35.1C132.8,35.1,132.8,35.1,132.8,35.1z"/>
		<path d="M137.4,32c-0.1,0-0.1-0.1-0.2-0.1c-0.2-0.1-0.4,0-0.5,0.1c-0.1,0.1-0.1,0.2-0.1,0.3c0,0.1-0.1,0.2-0.1,0.3
			c0,0.1,0,0.2,0,0.3l-1,4c0,0.1,0,0.1,0,0.2c0,0.1,0,0.1,0,0.2c0,0.1,0,0.1,0,0.2c0,0.1,0,0.1,0,0.2c0,0.1,0,0.1,0,0.2
			c0,0.1,0.1,0.1,0.1,0.2c0,0.1,0.1,0.1,0.2,0.2c0.1,0,0.2,0.1,0.3,0.1c0.1,0,0.2,0,0.3-0.1c0.1-0.1,0.1-0.1,0.2-0.2
			c0-0.1,0.1-0.2,0.1-0.3c0-0.1,0-0.2,0-0.3l0-0.1c0-0.1,0-0.2,0.1-0.3c0-0.1,0.1-0.3,0.1-0.4l1-4c0,0,0,0,0-0.1c0,0,0-0.1,0-0.1
			c0-0.1,0-0.1-0.1-0.2C137.5,32.1,137.5,32,137.4,32z"/>
		<path d="M142.3,35c0-0.1,0-0.1-0.1-0.2c0-0.1-0.1-0.1-0.1-0.2c-0.1-0.2-0.2-0.4-0.4-0.5c-0.2-0.1-0.4-0.2-0.6-0.2
			c-0.2,0-0.4,0.1-0.5,0.2c-0.1,0-0.2,0-0.2,0.1c-0.1,0-0.2,0.1-0.2,0.1c-0.3,0.2-0.5,0.3-0.7,0.5c-0.2,0.2-0.4,0.4-0.5,0.6
			c-0.1,0.2-0.3,0.4-0.3,0.6c-0.1,0.2-0.2,0.4-0.2,0.5c-0.1,0.2-0.1,0.4-0.1,0.6c0,0.2,0,0.4,0.1,0.5c0.1,0.2,0.1,0.3,0.3,0.4
			c0.1,0.1,0.3,0.2,0.4,0.3c0.2,0.1,0.4,0.1,0.6,0.1c0.2,0,0.4,0,0.6-0.1c0.2-0.1,0.4-0.1,0.5-0.3c0.2-0.2,0.4-0.3,0.6-0.5
			c0.2-0.2,0.3-0.4,0.5-0.6c0.1-0.2,0.2-0.4,0.3-0.7c0.1-0.2,0.1-0.5,0.1-0.7c0-0.1,0-0.2,0-0.3C142.4,35.2,142.3,35.1,142.3,35z
			 M141.4,35.5c0,0.1,0,0.1,0,0.2c0,0.1,0,0.2-0.1,0.3c0,0.1-0.1,0.3-0.2,0.5c-0.1,0.2-0.2,0.3-0.3,0.5c-0.1,0.1-0.3,0.3-0.4,0.4
			c-0.2,0.1-0.3,0.1-0.5,0.1c-0.1,0-0.2,0-0.2,0c-0.1,0-0.1-0.1-0.1-0.1c0,0-0.1-0.1-0.1-0.1c0-0.1,0-0.1,0-0.2c0,0,0-0.1,0-0.1
			c0,0,0-0.1,0-0.2l0,0c0-0.1,0-0.1,0.1-0.2c0-0.1,0.1-0.2,0.2-0.3s0.1-0.2,0.2-0.3c0.1-0.1,0.2-0.2,0.2-0.3
			c0.1-0.1,0.2-0.1,0.3-0.2c0.1-0.1,0.2-0.1,0.2-0.1c0.1,0,0.3,0,0.3,0c0.1,0,0.2,0,0.2-0.1c0,0,0.1,0,0.1-0.1c0,0,0,0.1,0.1,0.1
			c0,0.1,0.1,0.1,0.1,0.2C141.4,35.4,141.4,35.5,141.4,35.5z"/>
		<path d="M146.6,34.1c-0.1,0-0.3,0.1-0.4,0.2c-0.1,0.1-0.2,0.1-0.4,0.2c0,0,0,0,0-0.1c0,0,0-0.1,0-0.1c0-0.1-0.1-0.2-0.2-0.3
			c-0.1-0.1-0.4-0.1-0.6,0c-0.1,0-0.2,0.1-0.2,0.2c-0.1,0.2-0.1,0.4-0.2,0.5c-0.1,0.2-0.1,0.3-0.2,0.5l-0.2,0.5
			c-0.1,0.2-0.1,0.3-0.2,0.5c-0.1,0.2-0.1,0.4-0.2,0.6c-0.1,0.2-0.1,0.4-0.2,0.7c0,0.1,0,0.1,0,0.2c0,0,0,0.1,0,0.1
			c0,0.2,0,0.3,0.1,0.4c0.1,0.1,0.2,0.1,0.3,0.1c0,0,0,0,0.1,0c0,0,0.1,0,0.1,0c0,0,0.1-0.1,0.1-0.1c0,0,0.1-0.1,0.1-0.2
			c0-0.1,0-0.2,0.1-0.2c0-0.1,0-0.1,0-0.2c0-0.1,0-0.1,0-0.2c0,0,0-0.1,0-0.2c0-0.1,0.1-0.2,0.1-0.3s0.1-0.2,0.1-0.4
			c0-0.1,0.1-0.2,0.1-0.3c0-0.1,0.1-0.1,0.1-0.2c0.1,0,0.1-0.1,0.1-0.1c0.1,0,0.1-0.1,0.2-0.1c0.1-0.1,0.2-0.2,0.3-0.3
			c0.1-0.1,0.2-0.2,0.3-0.2c0.1-0.1,0.2-0.1,0.3-0.2c0.1,0,0.2-0.1,0.3-0.1s0.1,0,0.1,0c0,0,0,0.1,0,0.2c0,0.1,0,0.2,0,0.3
			c0,0.1-0.1,0.2-0.1,0.3c0,0.1-0.1,0.2-0.1,0.3l-0.2,0.4c-0.1,0.2-0.1,0.3-0.2,0.4s-0.1,0.3-0.1,0.4c0,0.1-0.1,0.3-0.1,0.4
			c0,0.1,0,0.2,0,0.3c0,0.1,0,0.2,0.1,0.3c0.1,0.1,0.2,0.1,0.3,0.1c0.1,0,0.1,0,0.2,0c0.1,0,0.1,0,0.2-0.1c0,0,0.1-0.1,0.1-0.2
			c0-0.1,0.1-0.1,0.1-0.2c0.1-0.3,0.2-0.5,0.3-0.8c0.1-0.3,0.2-0.5,0.3-0.8c0.1-0.2,0.2-0.5,0.2-0.7c0.1-0.2,0.1-0.4,0.1-0.6
			c0-0.3-0.1-0.6-0.3-0.7C147.5,34,147.1,33.9,146.6,34.1z"/>
		<path d="M153,36.8c-0.1-0.1-0.3-0.2-0.5,0c-0.1,0-0.2,0.1-0.3,0.2c-0.1,0-0.2,0.1-0.2,0.1c-0.1,0-0.2,0.1-0.3,0.1
			c-0.1,0-0.2,0.1-0.3,0.1c-0.1,0-0.2,0-0.3,0c-0.2,0-0.3,0-0.4-0.1c-0.1-0.1-0.1-0.1-0.1-0.3c0-0.1,0-0.1,0-0.2c0,0,0-0.1,0-0.1
			c0.1,0,0.2,0,0.3,0c0.2,0,0.3,0,0.5-0.1c0.2,0,0.3-0.1,0.5-0.1c0.2-0.1,0.3-0.1,0.5-0.2c0.1-0.1,0.3-0.2,0.4-0.3
			c0.1-0.1,0.2-0.3,0.2-0.4c0-0.1,0-0.2,0-0.3c0-0.1,0-0.2-0.1-0.3c0-0.1-0.1-0.2-0.2-0.3c-0.1-0.1-0.2-0.1-0.3-0.2
			c-0.3-0.1-0.7-0.1-1,0c-0.2,0.1-0.3,0.1-0.5,0.2c-0.1,0.1-0.3,0.2-0.4,0.3c-0.1,0.1-0.2,0.2-0.3,0.4c-0.1,0.1-0.2,0.2-0.2,0.3
			c0,0.1-0.1,0.1-0.1,0.2c-0.1,0-0.2,0.1-0.3,0.2c-0.1,0.1-0.1,0.2-0.1,0.4c0,0.1,0,0.2,0.1,0.2c0,0,0,0,0,0c0,0.1,0,0.2,0,0.3
			c0,0.2,0,0.3,0.1,0.4c0,0.1,0.1,0.2,0.2,0.3c0.1,0.1,0.2,0.2,0.3,0.2c0.1,0,0.2,0.1,0.3,0.1c0.1,0,0.2,0,0.3,0.1
			c0.1,0,0.2,0,0.2,0c0.3,0,0.7,0,1-0.1c0.3-0.1,0.6-0.3,0.9-0.5c0.1-0.1,0.1-0.1,0.2-0.2c0-0.1,0.1-0.2,0.1-0.2c0,0,0,0,0-0.1
			c0,0,0,0,0-0.1C153.1,37,153.1,36.9,153,36.8z M151,35.9C151,35.8,151,35.8,151,35.9c0.1-0.2,0.2-0.2,0.3-0.3
			c0.1-0.1,0.2-0.2,0.3-0.2c0.1-0.1,0.2-0.1,0.3-0.1c0,0,0.1,0,0.1,0c0,0,0,0,0,0.1l0,0c0,0.1-0.1,0.1-0.1,0.2
			c-0.1,0.1-0.1,0.1-0.3,0.2s-0.2,0.1-0.4,0.1C151.1,35.8,151.1,35.9,151,35.9z"/>
	</g>
</g>
</svg>
