<?xml version="1.0" encoding="utf-8"?>
<!-- Generator: Adobe Illustrator 19.2.1, SVG Export Plug-In . SVG Version: 6.00 Build 0)  -->
<svg version="1.1" id="Layer_1" xmlns="http://www.w3.org/2000/svg" xmlns:xlink="http://www.w3.org/1999/xlink" x="0px" y="0px"
	 viewBox="0 0 250 100" style="enable-background:new 0 0 250 100;" xml:space="preserve">
<style type="text/css">
	.st0{fill:#EA4335;}
	.st1{fill:#FBBC05;}
	.st2{fill:#4285F4;}
	.st3{fill:#34A853;}
	.st4{fill:#808080;}
</style>
<g>
	<g>
		<path class="st0" d="M91.5,35.2c2.9,0,5.6,0.7,8.2,2c2.6,1.4,4.5,3.2,5.8,5.6s2,5.1,2,8c0,6-1.7,12-5,18s-7.8,10.8-13.3,14.2
			c-5.5,3.5-11,5.2-16.6,5.2c-5.1,0-9-1.5-11.8-4.5c-2.8-3-4.1-6.7-4.1-11c0-5.2,1-10,3.1-14.5s4.7-8.4,7.8-11.8
			c3.2-3.3,6.8-6.1,10.9-8.2C82.8,36.3,87.1,35.2,91.5,35.2z M89.2,38.1c-2,0-3.6,0.6-4.9,1.7c-2.6,2.4-5.5,7.8-8.8,16.4
			s-4.9,16.4-4.9,23.3c0,1.7,0.5,3.1,1.6,4.2c1,1.1,2.3,1.7,3.7,1.7s2.7-0.4,3.8-1.3c1.7-1.3,3.7-4.3,6.1-9
			c2.4-4.7,4.3-9.8,5.8-15.4c1.5-5.6,2.3-10.8,2.3-15.5c0-1.9-0.5-3.4-1.4-4.5C91.5,38.7,90.4,38.1,89.2,38.1z"/>
	</g>
	<g>
		<path class="st1" d="M140,35.2l-11.4,39.6c-0.6,2.3-0.9,3.8-0.9,4.5c0,0.4,0.2,0.7,0.5,1.1c0.3,0.4,0.7,0.6,1,0.6
			c0.6,0,1.3-0.3,1.9-0.8c1.7-1.4,3.7-3.9,6-7.5l1.9,1.1c-5.6,9.8-11.6,14.7-17.9,14.7c-2.4,0-4.3-0.7-5.7-2s-2.1-3.1-2.1-5.2
			c0-1.4,0.3-3.1,1-5.3l7.7-26.6c0.7-2.5,1.1-4.4,1.1-5.7c0-0.8-0.4-1.6-1.1-2.2c-0.7-0.6-1.7-1-2.9-1c-0.6,0-1.3,0-2,0.1l0.7-2.2
			l18.9-3H140z"/>
	</g>
	<g>
		<path class="st1" d="M136.6,12.4c1.5,0,2.8,0.5,3.8,1.6c1,1.1,1.6,2.3,1.6,3.8c0,1.5-0.5,2.7-1.6,3.8c-1.1,1-2.3,1.6-3.8,1.6
			c-1.4,0-2.7-0.5-3.7-1.6c-1-1-1.6-2.3-1.6-3.8c0-1.5,0.5-2.7,1.5-3.8C133.9,12.9,135.1,12.4,136.6,12.4z"/>
	</g>
	<g>
		<path class="st2" d="M136.5,31.3c-3.6,0-6.8-1.3-9.4-3.9c-2.6-2.6-3.9-5.8-3.9-9.5c0-3.7,1.3-6.9,3.9-9.5c2.6-2.7,5.8-4,9.5-4
			c3.8,0,7,1.3,9.6,4c2.6,2.6,3.9,5.9,3.9,9.5c0,3.7-1.3,6.9-4,9.5C143.4,29.9,140.2,31.3,136.5,31.3z M136.5,8.2
			c-2.6,0-4.8,0.9-6.7,2.8c-1.8,1.9-2.7,4.1-2.7,6.8c0,2.7,0.9,4.9,2.8,6.7c1.9,1.9,4,2.8,6.6,2.8c2.7,0,4.9-0.9,6.8-2.8
			c1.9-1.9,2.8-4.1,2.8-6.7c0-2.7-0.9-4.9-2.8-6.8C141.5,9.1,139.3,8.2,136.5,8.2z"/>
	</g>
	<g>
		<path class="st2" d="M185.5,73.4l1.7,1.5c-3.6,4.3-7.1,7.4-10.6,9.5c-4.6,2.7-9.4,4-14.4,4c-3.4,0-6.3-0.7-8.9-2.1s-4.5-3.4-5.7-6
			c-1.2-2.6-1.9-5.2-1.9-8c0-6.1,1.7-12.1,5-17.9s7.7-10.5,13.1-14c5.4-3.4,10.7-5.2,15.9-5.2c4.2,0,7.4,0.9,9.5,2.8
			c2.1,1.8,3.2,4.1,3.2,6.9c0,2.5-0.8,4.6-2.4,6.3c-1.6,1.7-3.4,2.6-5.4,2.6c-1.7,0-3.1-0.6-4.3-1.7c-1.1-1.1-1.7-2.4-1.7-3.9
			c0-2,1-3.7,3-5.3c1.3-1,2-1.9,2-2.7c0-0.6-0.3-1.2-0.8-1.6c-0.7-0.6-1.7-0.9-2.9-0.9c-3.1,0-6,1.3-8.8,3.8
			c-3.6,3.3-6.4,7.5-8.3,12.7s-2.9,10-2.9,14.6c0,3.6,1,6.5,2.9,8.7c2,2.2,4.3,3.3,7,3.3c2.4,0,4.9-0.6,7.7-1.8
			C180.3,77.8,183,75.9,185.5,73.4z"/>
	</g>
	<g>
		<path class="st3" d="M211.1,65.9c-0.4,2.4-0.6,4.4-0.6,5.9c0,2.8,0.8,5,2.4,6.7c1.6,1.7,3.8,2.5,6.5,2.5c2.6,0,5.2-0.6,7.8-1.9
			c2.6-1.3,5.6-3.5,9.1-6.6l1.7,1.5c-4.3,5.2-8.4,8.8-12.5,11c-4,2.2-8.5,3.3-13.4,3.3c-6.2,0-10.5-1.5-12.9-4.5s-3.6-6.4-3.6-10.3
			c0-6.1,1.8-12.2,5.3-18.3s8.4-11,14.5-14.6c6.1-3.7,12.2-5.5,18.4-5.5c3.1,0,5.5,0.7,7.1,2.2c1.6,1.5,2.4,3.3,2.4,5.6
			c0,2.7-0.8,5.4-2.4,8c-2.1,3.5-4.8,6.3-8.1,8.4c-3.3,2.1-6.9,3.8-11,4.9C219.3,65,215.7,65.6,211.1,65.9z M211.6,63
			c3.3-0.5,5.8-1.1,7.6-1.9s3.6-2.2,5.3-4s3.2-4.2,4.5-7c1.2-2.8,1.9-5.4,1.9-7.9c0-1-0.3-1.8-0.9-2.4s-1.3-0.9-2.2-0.9
			c-1.8,0-3.8,1.2-6,3.7C217.7,47.2,214.3,54,211.6,63z"/>
	</g>
	<g>
		<path class="st4" d="M168.5,26.3c-4,0-6.1-1.6-6.3-4.7h2.6c0,1.8,1.2,2.7,3.7,2.7c1.1,0,1.9-0.2,2.5-0.7s0.8-1,0.8-1.7
			c0-0.3-0.1-0.6-0.2-0.8c-0.1-0.2-0.3-0.4-0.6-0.6s-0.7-0.3-1.3-0.5c-0.5-0.2-1.3-0.3-2.2-0.6c-0.9-0.2-1.6-0.4-2.2-0.7
			s-1.1-0.5-1.5-0.8c-0.4-0.3-0.7-0.7-0.9-1.1s-0.3-1-0.3-1.7c0-0.6,0.1-1.2,0.4-1.7c0.3-0.5,0.6-1,1.1-1.3s1-0.7,1.7-0.9
			c0.7-0.2,1.4-0.3,2.3-0.3c3.8,0,5.8,1.4,5.9,4.1h-2.6c-0.1-1.4-1.1-2-3.1-2c-0.9,0-1.6,0.2-2.2,0.5c-0.6,0.3-0.9,0.8-0.9,1.5
			c0,0.3,0,0.5,0.1,0.7c0.1,0.2,0.2,0.4,0.5,0.5c0.3,0.1,0.7,0.3,1.2,0.5c0.5,0.2,1.3,0.4,2.2,0.6c0.9,0.2,1.7,0.4,2.3,0.7
			s1.2,0.5,1.6,0.8s0.7,0.7,1,1.2s0.3,1.1,0.3,1.8c0,0.7-0.1,1.3-0.4,1.8c-0.3,0.6-0.7,1.1-1.2,1.5s-1.1,0.7-1.9,1
			C170.2,26.2,169.4,26.3,168.5,26.3z"/>
		<path class="st4" d="M180,8.6h-2.6V5.8h2.6V8.6z M180,26h-2.6V11.3h2.6V26z"/>
		<path class="st4" d="M186.5,13.2c1.3-1.5,2.7-2.2,4.4-2.2c3.3,0,4.9,1.8,4.9,5.4V26h-2.6v-9.5c0-1.2-0.2-2.1-0.6-2.6
			c-0.4-0.5-1.1-0.8-2.1-0.8c-1.3,0-2.7,0.8-4,2.3V26h-2.6V11.3h2.6V13.2z"/>
		<path class="st4" d="M211.5,24.9c0,4.7-2.1,7.1-6.4,7.1c-0.9,0-1.7-0.1-2.5-0.3c-0.7-0.2-1.4-0.5-1.9-0.9
			c-0.5-0.4-0.9-0.8-1.2-1.4s-0.4-1.2-0.4-1.9h2.7c0,1.6,1.1,2.4,3.2,2.4c0.6,0,1.2-0.1,1.6-0.2c0.5-0.2,0.9-0.4,1.2-0.8
			c0.3-0.4,0.6-0.9,0.7-1.5c0.2-0.6,0.3-1.4,0.3-2.4v-0.7c-1.2,1.4-2.6,2.1-4.2,2.1c-1,0-1.8-0.2-2.6-0.5c-0.8-0.4-1.4-0.9-1.9-1.5
			c-0.5-0.6-0.9-1.4-1.2-2.4s-0.4-2-0.4-3.1c0-1.2,0.2-2.3,0.5-3.3s0.8-1.8,1.3-2.4c0.6-0.7,1.2-1.2,2-1.5c0.8-0.4,1.6-0.5,2.4-0.5
			c1.6,0,2.9,0.5,4,1.5v-1.1h2.6V24.9z M208.9,21.7v-6.9c-1.2-1.2-2.4-1.8-3.9-1.8c-1.1,0-2,0.5-2.7,1.4c-0.7,0.9-1,2.4-1,4.3
			c0,1.8,0.3,3.2,0.9,4.1c0.6,0.9,1.5,1.4,2.6,1.4C206.4,24.3,207.7,23.4,208.9,21.7z"/>
		<path class="st4" d="M221.5,26.3c-1.1,0-2-0.2-2.9-0.5c-0.9-0.3-1.6-0.8-2.3-1.5c-0.6-0.7-1.1-1.5-1.5-2.4s-0.5-2-0.5-3.2
			c0-1.2,0.2-2.3,0.5-3.2c0.3-1,0.8-1.8,1.4-2.4s1.3-1.2,2.2-1.5c0.8-0.4,1.8-0.5,2.8-0.5c1,0,2,0.2,2.8,0.5
			c0.8,0.3,1.6,0.9,2.2,1.5c0.6,0.7,1.1,1.5,1.4,2.4c0.3,0.9,0.5,2,0.5,3.2v0.6h-11c0,0.8,0.2,1.6,0.4,2.2c0.2,0.6,0.6,1.1,1,1.6
			c0.4,0.4,0.8,0.7,1.4,0.9c0.5,0.2,1.1,0.3,1.7,0.3c0.4,0,0.9-0.1,1.3-0.2c0.4-0.1,0.8-0.3,1.2-0.5c0.3-0.2,0.6-0.5,0.8-0.8
			c0.2-0.3,0.3-0.7,0.3-1.1h2.7c-0.1,0.7-0.3,1.4-0.7,2c-0.4,0.6-0.8,1.1-1.4,1.5c-0.6,0.4-1.2,0.7-1.9,0.9
			C223.1,26.2,222.3,26.3,221.5,26.3z M225.4,17.2c-0.2-1.4-0.7-2.4-1.4-3.2c-0.7-0.7-1.6-1.1-2.7-1.1c-1,0-1.9,0.3-2.7,1
			c-0.8,0.7-1.2,1.7-1.4,3.2H225.4z"/>
		<path class="st4" d="M238.6,13.7c-0.4-0.1-0.9-0.2-1.6-0.2c-1.3,0-2.5,0.7-3.4,2.1V26H231V11.3h2.6v2c1.1-1.6,2.4-2.4,3.8-2.4
			c0.4,0,0.8,0,1.2,0.1V13.7z"/>
	</g>
	<g>
		<polygon class="st2" points="56.2,14 53.5,21 62,21 64.8,14 		"/>
	</g>
	<g>
		<g>
			<polygon class="st2" points="125.4,14 64.6,14 62,21 125.6,21 			"/>
		</g>
		<g>
			<polygon class="st2" points="53.5,21 48,35.9 40.8,14 6.6,14 32.9,91.5 34.3,95.7 62,21 			"/>
		</g>
	</g>
</g>
</svg>
